<?xml version="1.0" standalone="no"?>
<!DOCTYPE svg PUBLIC "-//W3C//DTD SVG 20010904//EN"
 "http://www.w3.org/TR/2001/REC-SVG-20010904/DTD/svg10.dtd">
<svg version="1.0" xmlns="http://www.w3.org/2000/svg"
 width="3455.000000pt" height="667.000000pt" viewBox="0 0 3455.000000 667.000000"
 preserveAspectRatio="xMidYMid meet">
<metadata>
Created by potrace 1.15, written by Peter Selinger 2001-2017
</metadata>
<g transform="translate(0.000000,667.000000) scale(0.100000,-0.100000)"
fill="#000000" stroke="none">
<path d="M3390 6648 c-42 -22 -50 -34 -133 -188 -48 -91 -93 -169 -99 -175 -8
-7 -9 -6 -3 5 7 12 6 13 -6 2 -8 -7 -15 -17 -15 -22 -1 -6 -2 -16 -3 -22 -1
-8 -7 -4 -13 6 -8 15 -8 21 0 24 7 2 12 8 12 13 0 6 -7 6 -17 1 -10 -5 -36
-12 -58 -16 -31 -5 -37 -4 -25 5 13 9 12 10 -3 5 -10 -3 -24 -6 -30 -6 -6 0
-2 -6 8 -14 18 -13 18 -14 -9 -9 -18 4 -31 1 -37 -8 -5 -8 -9 -9 -9 -3 0 14
-38 26 -45 14 -11 -17 -109 -41 -145 -35 -23 4 -41 2 -45 -4 -3 -6 -17 -11
-31 -11 -14 0 -22 -4 -19 -10 3 -6 -5 -10 -18 -10 -15 0 -31 -10 -41 -25 -9
-14 -22 -25 -29 -25 -6 0 -4 5 6 11 25 15 21 29 -8 27 -22 -2 -25 -6 -21 -31
5 -33 -14 -45 -47 -29 -20 10 -19 11 8 7 l30 -5 -30 14 c-21 10 -32 11 -37 3
-4 -6 -5 -14 -3 -17 2 -4 -9 -7 -25 -7 -16 0 -27 5 -23 10 12 19 -42 -6 -59
-28 -10 -12 -28 -25 -40 -28 -22 -6 -22 -6 2 16 14 12 21 19 16 15 -6 -5 -16
-8 -24 -8 -17 0 -43 -25 -35 -34 4 -3 -1 -6 -11 -6 -10 0 -14 5 -10 11 4 8 0
7 -15 -1 -12 -6 -18 -16 -15 -22 4 -7 2 -8 -5 -4 -6 4 -18 3 -25 -3 -7 -6 -25
-12 -39 -13 -20 -2 -23 -5 -15 -15 13 -17 -4 -17 -21 0 -10 10 -11 8 -5 -7 6
-15 3 -17 -13 -12 -14 4 -20 2 -20 -9 0 -11 6 -14 16 -9 25 10 40 10 38 -1 -1
-5 -20 -10 -42 -10 -25 1 -39 5 -38 13 2 6 -4 9 -12 6 -8 -4 -12 -11 -8 -17 3
-6 1 -7 -5 -3 -16 9 -50 -25 -47 -46 3 -14 -1 -15 -21 -8 -16 6 -33 6 -49 -2
-21 -9 -23 -14 -12 -26 10 -13 9 -14 -9 -4 -18 10 -26 7 -50 -13 -15 -13 -33
-21 -38 -18 -6 4 -5 0 2 -9 10 -13 10 -17 -2 -21 -9 -4 -18 -2 -21 4 -4 5 -14
2 -23 -9 -9 -10 -12 -11 -7 -2 9 13 8 13 -9 0 -17 -14 -17 -15 10 -37 22 -17
25 -23 12 -23 -9 0 -21 -7 -25 -15 -7 -12 -13 -12 -37 5 l-29 19 -58 -40 c-58
-39 -84 -64 -55 -53 9 3 16 10 16 15 0 5 5 9 12 9 6 0 20 8 31 18 15 12 19 13
15 3 -6 -20 -80 -61 -98 -55 -8 3 -11 2 -7 -2 4 -4 -2 -13 -12 -21 -12 -8 -18
-22 -16 -38 1 -14 -2 -28 -8 -32 -6 -3 -7 -1 -3 5 9 16 -7 15 -22 0 -9 -9 -15
-9 -23 -1 -9 9 -24 -1 -62 -38 -38 -38 -50 -57 -53 -84 -2 -25 1 -33 9 -28 7
3 9 2 5 -2 -5 -5 -20 -10 -34 -11 l-26 -3 22 19 c13 11 19 24 14 31 -5 9 -10
5 -16 -10 -5 -14 -14 -21 -22 -18 -7 3 -29 -10 -47 -30 -25 -26 -28 -32 -12
-24 25 13 36 2 26 -25 -5 -13 -3 -15 8 -9 8 4 11 4 7 0 -5 -5 -19 -10 -33 -11
l-26 -3 23 20 c21 19 21 20 3 14 -11 -4 -25 -8 -32 -9 -7 -1 -16 -6 -20 -11
-4 -4 -2 -5 5 -1 6 4 12 2 12 -4 0 -6 -10 -14 -23 -19 -25 -10 -96 -86 -121
-131 -5 -8 6 -1 25 15 18 17 28 23 21 14 -9 -12 -9 -19 1 -29 10 -12 9 -12 -5
-1 -16 12 -22 9 -19 -11 0 -3 -10 -5 -23 -4 -17 2 -23 -1 -19 -10 3 -8 -1 -14
-10 -14 -8 0 -20 -6 -26 -13 -8 -10 -7 -14 4 -14 8 0 12 4 9 9 -3 4 0 8 5 8
23 0 2 -34 -21 -35 -13 0 -44 -41 -40 -53 2 -7 -2 -10 -11 -6 -8 3 -18 0 -23
-7 -4 -7 -3 -10 3 -6 6 4 17 -1 24 -11 7 -9 9 -14 5 -10 -5 4 -16 2 -24 -5
-13 -9 -14 -9 -8 1 4 6 5 12 2 12 -9 0 -36 -32 -36 -43 0 -7 4 -6 10 3 5 8 10
10 10 5 0 -6 -5 -16 -12 -23 -6 -6 -8 -15 -4 -19 4 -4 11 -1 16 7 6 8 10 11
10 5 0 -20 -16 -32 -39 -31 -14 0 -26 -6 -28 -14 -4 -11 -2 -12 5 -2 6 9 9 4
9 -17 0 -29 -1 -29 -17 -9 -16 20 -16 20 -34 -7 -10 -15 -13 -24 -7 -21 6 4
11 3 11 -3 0 -5 -5 -13 -10 -16 -6 -4 -8 -15 -5 -26 5 -14 2 -18 -12 -17 -10
2 -19 -1 -21 -7 -2 -5 -11 -19 -21 -30 -29 -31 -40 -60 -34 -83 5 -21 -4 -27
-30 -23 -5 1 -5 -3 -2 -9 4 -6 0 -17 -9 -23 -13 -11 -13 -14 3 -34 l19 -23 6
26 c4 15 5 29 2 31 -3 3 6 17 20 31 24 27 27 49 5 44 -9 -2 -9 3 -2 15 18 30
38 53 47 53 4 0 3 -5 -4 -12 -16 -16 -15 -25 4 -32 12 -4 15 -2 10 9 -3 8 0
14 6 12 6 -1 21 12 32 30 12 18 25 32 29 33 15 0 77 47 71 53 -3 3 9 13 28 23
18 9 49 33 68 53 53 54 110 95 110 78 0 -8 14 -17 31 -21 52 -10 66 -5 29 9
l-35 14 40 -6 c22 -3 46 -10 52 -16 9 -6 17 -6 26 2 10 8 19 7 32 -3 18 -13
17 -14 -7 -11 -37 4 -56 -11 -25 -19 14 -3 32 -12 39 -19 7 -7 25 -20 40 -30
27 -16 27 -20 21 -77 -4 -42 -2 -60 6 -60 6 0 11 -13 11 -29 0 -32 17 -41 83
-41 21 0 36 -4 33 -8 -3 -5 1 -9 8 -9 8 0 11 12 9 36 -4 54 -6 60 -13 56 -14
-9 -17 51 -8 150 12 144 12 156 -2 165 -7 5 -9 13 -4 21 5 9 11 2 20 -22 l12
-34 6 30 c4 17 14 43 23 58 11 21 12 32 4 40 -13 13 -15 37 -2 37 5 0 11 -8
13 -17 3 -13 14 -3 38 35 18 28 37 52 43 52 5 0 7 9 4 20 -3 13 0 20 10 20 8
0 11 -4 8 -10 -13 -21 21 2 39 27 15 21 16 27 5 35 -10 7 -8 8 8 3 15 -4 34 2
58 18 35 24 35 25 13 32 l-23 8 25 4 c13 3 26 0 28 -6 2 -7 11 -6 25 4 24 15
129 44 191 52 22 3 48 0 62 -8 20 -10 34 -11 70 -1 49 13 66 9 58 -13 -5 -11
-11 -12 -26 -4 -23 12 -39 2 -18 -11 8 -5 30 -7 48 -4 27 5 32 3 32 -14 0 -20
24 -37 48 -33 6 1 12 -5 12 -13 0 -9 9 -20 20 -26 16 -9 19 -8 13 6 -4 12 -2
15 8 12 8 -3 14 -14 14 -25 1 -11 9 -33 20 -49 10 -16 29 -49 42 -74 l23 -45
-5 48 c-5 38 -3 47 10 47 18 0 20 -36 3 -43 -10 -4 -10 -8 0 -15 8 -5 12 -22
11 -38 -2 -16 -1 -34 2 -39 15 -24 10 -244 -6 -306 -25 -97 -93 -198 -177
-264 -153 -120 -284 -150 -457 -105 -47 12 -97 28 -112 36 -52 26 -60 20 -42
-31 50 -147 -40 -362 -180 -429 -59 -29 -152 -46 -248 -46 -52 0 -73 5 -100
23 -30 20 -34 29 -37 72 -2 28 1 80 8 116 l11 65 61 13 c46 9 70 21 95 46 18
18 33 38 33 45 0 14 -13 7 -71 -42 -48 -39 -58 -42 -118 -40 -27 2 -45 13 -84
53 -51 53 -57 55 -126 41 -45 -10 -111 7 -111 28 0 6 -7 10 -16 10 -8 0 -13 4
-10 9 3 5 -1 14 -9 21 -12 10 -18 10 -29 1 -10 -8 -16 -9 -21 -1 -3 5 1 10 9
10 20 0 11 25 -22 65 -24 29 -25 29 -18 5 6 -19 5 -21 -3 -10 -6 8 -11 11 -11
7 0 -4 -11 5 -25 20 -18 20 -23 22 -18 9 4 -13 3 -17 -5 -12 -8 5 -10 1 -5
-10 5 -13 3 -15 -7 -9 -9 6 -11 4 -5 -5 6 -10 11 -9 22 5 7 11 13 14 13 9 0
-16 -45 -55 -54 -47 -4 4 -4 -1 0 -11 5 -13 4 -17 -4 -12 -7 4 -9 -5 -6 -31 4
-25 2 -33 -4 -25 -7 11 -11 11 -19 0 -21 -27 -23 -48 -5 -48 16 -1 16 -1 -1
-11 -9 -6 -15 -14 -12 -20 4 -5 -1 -9 -9 -9 -9 0 -16 -4 -16 -8 0 -5 -46 -16
-102 -26 -357 -61 -371 -64 -407 -100 -42 -43 -53 -112 -24 -163 10 -17 89
-86 178 -154 88 -67 188 -151 224 -186 35 -35 77 -71 92 -79 16 -8 29 -19 29
-25 0 -10 -100 63 -135 98 -13 12 -16 13 -14 2 2 -8 -5 -28 -14 -46 -18 -35
-22 -57 -8 -49 5 3 6 -15 3 -40 -3 -30 -1 -49 7 -53 7 -4 9 -15 5 -25 -6 -17
-8 -16 -21 5 -11 20 -13 20 -8 4 2 -11 1 -35 -4 -53 -7 -21 -6 -32 1 -32 6 0
8 -9 4 -22 -9 -29 -9 -284 -1 -298 3 -6 2 -10 -3 -10 -9 0 -7 -89 3 -121 3
-10 1 -27 -5 -39 -6 -11 -7 -20 -2 -20 6 0 12 8 14 18 3 10 12 19 19 19 11 0
13 -10 10 -36 -4 -33 -5 -34 -11 -11 -4 14 -6 -21 -6 -77 0 -57 5 -103 9 -103
5 0 7 -7 3 -15 -3 -8 -1 -26 4 -40 5 -14 12 -46 16 -72 3 -27 10 -52 15 -58 5
-5 9 -14 9 -20 0 -5 -5 -3 -11 5 -8 12 -9 9 -4 -10 4 -14 8 -38 8 -53 0 -20 2
-24 8 -15 5 7 9 27 9 43 0 21 3 26 9 16 6 -9 4 -29 -5 -53 -14 -40 -9 -72 10
-65 6 3 12 -5 13 -17 4 -43 26 -132 39 -158 8 -14 11 -33 8 -42 -3 -9 -2 -16
4 -16 6 0 12 6 15 13 3 6 4 2 4 -10 -1 -12 -4 -20 -8 -17 -4 2 -3 -8 2 -23 4
-16 11 -41 14 -57 3 -15 9 -26 12 -22 9 8 43 -24 43 -41 0 -7 5 -13 11 -13 6
0 9 7 5 15 -3 8 -1 15 4 15 11 0 25 -48 16 -57 -3 -4 -6 1 -6 11 0 10 -5 14
-11 10 -6 -3 -21 4 -33 18 -11 13 -17 19 -13 12 4 -7 10 -22 12 -34 5 -26 15
-40 15 -21 0 7 5 9 10 6 6 -3 7 -18 4 -33 -4 -22 -3 -24 6 -12 9 12 11 10 7
-13 -3 -22 -2 -25 9 -16 11 9 14 5 15 -22 1 -19 1 -38 0 -43 -1 -5 4 -6 12 -3
10 4 18 -10 26 -49 7 -30 17 -52 22 -49 5 4 9 -3 9 -14 0 -11 5 -23 10 -26 6
-4 8 -10 6 -14 -3 -4 3 -17 14 -28 10 -12 16 -24 12 -29 -4 -4 -1 -3 7 1 11 6
13 4 7 -10 -5 -15 -4 -16 9 -5 13 11 16 11 13 -1 -2 -8 3 -13 11 -11 9 2 12
-4 8 -20 -4 -13 -1 -30 4 -38 9 -12 10 -10 6 8 -6 27 8 20 16 -8 3 -11 0 -20
-6 -20 -8 0 -7 -3 1 -9 8 -4 14 -12 15 -17 1 -5 5 -8 9 -7 7 3 19 -27 27 -63
0 -4 8 0 18 7 15 13 15 12 4 -10 -8 -15 -9 -21 -2 -17 6 4 11 3 11 -3 0 -6 10
-20 22 -32 13 -12 17 -18 9 -14 -9 5 -12 4 -7 -3 5 -9 13 -9 26 -2 16 8 18 8
14 -5 -4 -8 -1 -15 5 -15 6 0 11 5 11 12 0 6 2 9 5 6 3 -3 1 -16 -4 -29 -5
-13 -10 -19 -10 -13 -1 7 -8 15 -16 18 -13 5 -12 1 2 -18 l18 -23 19 21 c18
20 19 20 12 1 -12 -32 -15 -55 -8 -53 4 1 17 -2 30 -6 17 -6 21 -12 16 -28 -5
-17 -3 -20 11 -14 16 6 16 4 4 -10 -13 -16 -12 -16 8 -6 12 7 23 17 26 24 2 7
4 -3 3 -24 -1 -21 -5 -34 -11 -30 -5 3 7 -12 28 -33 22 -22 44 -40 50 -40 7
-1 11 -6 10 -12 -2 -7 21 -36 49 -65 29 -29 53 -57 53 -63 1 -5 6 -9 12 -8 6
1 19 -7 28 -17 10 -11 24 -20 31 -20 19 0 15 -30 -51 -362 -57 -286 -59 -299
-45 -340 20 -56 67 -88 130 -88 40 0 58 7 109 42 33 24 87 61 118 83 32 22
104 73 160 113 127 90 220 144 220 126 0 -7 -4 -11 -8 -8 -14 8 -19 -14 -5
-25 10 -8 21 -8 41 -1 35 13 44 6 14 -10 l-23 -13 30 -15 c16 -9 42 -15 58
-13 22 2 27 -1 23 -12 -4 -11 6 -18 37 -26 43 -11 109 -41 91 -41 -13 0 17
-20 30 -20 6 0 4 4 -3 9 -10 6 -9 10 7 14 12 3 24 0 28 -5 3 -7 1 -8 -5 -4 -8
5 -10 2 -6 -8 3 -9 10 -16 16 -16 5 0 6 5 3 10 -3 6 1 10 10 10 10 0 13 -5 9
-11 -5 -8 1 -10 19 -7 15 3 24 1 21 -3 -3 -5 -12 -9 -21 -9 -9 0 -13 -3 -10
-7 4 -3 21 -6 38 -5 37 1 82 -15 75 -26 -2 -4 11 -9 31 -10 20 -2 41 -6 47 -9
5 -4 21 -8 34 -9 35 -4 54 -13 48 -22 -2 -4 4 -9 15 -9 21 -2 26 13 7 20 -10
4 -10 6 -1 6 6 1 19 -9 28 -21 12 -18 17 -20 24 -9 7 11 9 11 13 0 3 -8 18
-15 34 -16 53 -5 59 -6 66 -16 3 -6 42 -10 85 -10 48 1 68 -2 53 -7 -20 -5
-15 -8 28 -11 49 -4 68 3 40 14 -7 3 0 6 15 6 16 1 40 -8 54 -19 16 -12 41
-20 65 -20 22 0 37 -3 35 -7 -3 -5 16 -8 41 -9 26 -1 63 -3 82 -6 19 -3 45 -2
58 3 16 6 22 5 22 -6 0 -11 17 -14 83 -13 45 1 90 5 100 10 29 15 70 20 62 8
-3 -5 -1 -10 4 -10 6 0 11 7 11 16 0 11 6 14 23 9 12 -4 29 -9 39 -11 9 -3 19
0 23 6 3 5 11 10 16 10 6 0 7 -6 3 -12 -5 -8 -1 -7 10 2 13 10 42 14 105 13
62 -1 79 1 61 7 -18 7 -8 9 40 6 71 -3 93 1 84 15 -3 5 0 9 5 9 6 0 11 -4 11
-10 0 -5 21 -2 48 6 26 9 58 17 72 18 14 2 31 4 38 4 7 1 10 7 7 12 -4 6 7 10
27 10 38 1 77 24 56 34 -14 6 28 -3 50 -11 6 -3 12 2 12 11 0 33 47 42 106 19
12 -4 15 -3 10 5 -4 7 0 13 11 14 10 1 25 2 33 4 8 1 21 2 27 3 7 1 12 6 10
12 -1 6 12 16 29 23 20 7 29 16 27 26 -3 9 -1 11 4 4 4 -6 17 -14 27 -17 16
-6 17 -5 6 7 -10 13 -7 15 21 11 28 -3 89 17 89 30 0 6 -32 -6 -47 -18 -9 -6
-13 -6 -13 1 0 18 40 34 65 28 13 -3 27 -1 30 4 4 6 11 8 16 5 5 -4 9 -2 9 3
0 6 -11 9 -24 8 -13 0 -23 -3 -21 -6 7 -11 -61 -4 -73 7 -9 9 -4 11 23 6 26
-4 41 -1 55 12 11 10 20 14 20 8 0 -16 48 -34 56 -21 5 7 3 8 -6 3 -9 -6 -11
-4 -6 4 5 7 15 10 23 7 8 -3 11 -1 8 4 -3 6 5 10 19 10 14 0 28 4 31 10 15 24
58 1 265 -146 142 -99 233 -157 255 -161 71 -11 147 42 160 113 4 17 -16 136
-50 294 -31 146 -53 275 -50 287 3 12 1 25 -5 28 -5 3 -10 11 -10 16 0 6 7 3
16 -5 19 -20 19 -20 35 2 13 15 12 16 -2 4 -14 -10 -18 -10 -22 1 -3 9 4 13
22 12 21 -1 49 22 139 112 61 63 112 118 112 124 0 6 4 8 9 4 5 -3 13 0 17 6
5 8 3 9 -6 4 -10 -6 -12 -4 -7 9 4 10 7 20 7 23 0 3 6 0 14 -6 12 -10 13 -8 9
8 -3 12 -10 18 -17 14 -6 -3 -3 3 7 14 10 12 27 19 42 18 15 -2 22 1 19 9 -2
6 6 16 18 21 13 6 23 15 23 22 0 6 10 23 23 37 26 31 28 40 6 32 -21 -8 -7 11
18 25 18 10 20 9 15 -5 -11 -27 0 -18 24 22 13 20 29 43 36 50 7 8 11 18 8 23
-4 5 -1 9 4 9 22 0 10 20 -26 45 -21 14 -35 26 -33 26 23 6 97 3 94 -3 -3 -5
-10 -6 -15 -3 -5 4 -9 2 -9 -4 0 -5 5 -13 10 -16 6 -3 10 -1 10 5 0 6 5 8 10
5 6 -4 9 -3 8 2 -4 15 13 53 22 48 4 -3 11 3 15 13 12 27 14 43 5 37 -5 -3
-12 -1 -15 5 -4 6 -3 9 2 8 4 -1 18 1 30 6 15 5 20 12 16 23 -4 11 -2 14 5 9
8 -5 10 -2 5 9 -5 13 -7 14 -14 3 -7 -10 -9 -10 -9 0 0 6 -4 12 -10 12 -5 0
-10 -7 -10 -15 0 -8 5 -15 12 -15 17 0 4 -10 -21 -15 -22 -4 -29 9 -11 20 15
9 12 22 -6 29 -33 13 -51 -45 -20 -66 8 -5 7 -8 -1 -8 -6 0 -19 7 -27 16 -15
14 -19 13 -46 -6 -33 -24 -39 -40 -13 -40 13 0 11 -4 -7 -20 -25 -21 -50 -26
-50 -10 0 19 -28 10 -33 -11 -3 -12 -10 -18 -16 -15 -6 4 -21 2 -33 -5 -22
-12 -22 -12 -3 -20 15 -6 10 -8 -20 -9 -49 -3 -69 0 -75 10 -10 14 -65 37 -79
32 -8 -3 -11 0 -7 6 10 16 -31 35 -51 24 -18 -11 -53 -4 -53 9 0 5 9 9 21 9
28 0 15 16 -29 37 -20 9 -51 27 -69 40 -22 17 -38 22 -57 17 -20 -5 -26 -2
-26 11 0 10 4 13 13 9 8 -5 7 -2 -2 9 -8 11 -21 15 -32 12 -13 -4 -19 -1 -19
9 0 9 -4 16 -8 16 -5 0 -18 9 -31 21 l-22 21 6 -35 c7 -35 -8 -60 -19 -31 -3
9 -2 12 5 9 12 -8 0 43 -15 63 -51 64 -68 65 -37 3 12 -22 21 -42 21 -45 0 -3
-25 -23 -55 -44 -56 -40 -60 -52 -18 -52 19 0 29 -11 48 -52 14 -29 25 -71 25
-92 l0 -39 53 7 c68 10 69 10 91 0 14 -5 17 -4 12 4 -4 7 -1 12 8 12 9 0 16
-7 16 -15 0 -8 -4 -15 -10 -15 -5 0 -10 -4 -10 -10 0 -5 8 -6 18 -3 14 6 15 4
4 -9 -9 -11 -10 -18 -2 -23 5 -3 10 -3 10 2 1 12 50 -110 50 -123 0 -18 -89
-74 -116 -74 -8 0 -31 -11 -52 -24 -57 -36 -240 -123 -304 -145 -44 -15 -65
-18 -92 -10 -33 9 -36 15 -78 122 l-43 112 -6 -71 c-8 -88 -32 -135 -109 -217
-66 -71 -158 -125 -249 -148 -29 -7 -56 -19 -58 -26 -4 -9 -31 -13 -95 -13
-50 0 -87 4 -84 9 5 8 -21 26 -35 23 -3 0 -11 27 -18 61 -17 84 -19 89 -31 82
-5 -3 -10 1 -10 9 0 10 6 13 15 10 9 -4 15 -1 15 7 0 23 -70 421 -80 459 -5
19 -10 47 -10 62 0 25 4 27 88 46 179 42 276 38 411 -15 86 -34 145 -75 182
-125 16 -23 29 -39 29 -37 0 2 -15 65 -34 139 -19 74 -37 153 -40 175 l-7 41
53 24 c29 13 121 57 203 97 118 58 156 73 180 68 24 -4 38 2 68 26 21 17 36
34 33 36 -3 3 6 15 20 26 15 11 23 26 20 34 -4 10 1 14 17 12 27 -2 59 10 52
21 -2 4 17 10 43 13 38 5 50 2 63 -12 12 -15 20 -17 35 -8 28 15 28 15 10 32
-18 18 -21 35 -6 35 6 0 10 -6 10 -14 0 -7 7 -19 15 -26 21 -17 19 -30 -5 -30
-29 0 -24 -17 10 -35 l29 -15 -3 32 c-2 18 -14 58 -28 88 -40 85 -42 97 -18
110 11 6 20 20 20 30 0 15 7 20 28 20 15 0 39 11 54 24 14 14 28 23 30 20 3
-2 17 7 31 20 14 13 28 21 31 18 3 -3 6 0 6 6 0 6 6 9 14 6 8 -3 17 -1 21 5
12 20 65 12 93 -14 19 -18 28 -21 35 -12 5 7 6 3 2 -10 -3 -13 -3 -23 2 -23 8
0 21 -21 45 -72 13 -29 33 -37 41 -15 2 6 8 9 12 5 5 -5 1 -16 -8 -26 -18 -19
-23 -37 -9 -28 5 3 14 -16 21 -42 12 -43 14 -45 21 -22 6 24 7 24 13 4 4 -12
5 -28 1 -37 -6 -17 15 -77 28 -77 3 0 12 -17 18 -37 13 -39 37 -97 71 -169 24
-51 24 -61 -2 -103 -23 -38 -21 -43 18 -45 16 -1 33 -5 40 -9 6 -4 14 -3 17 2
4 5 2 12 -4 16 -6 4 -5 11 3 19 6 8 15 12 19 9 4 -2 5 4 1 13 -5 13 -3 15 7 9
8 -5 11 -4 6 3 -3 6 -2 13 4 17 5 3 15 16 22 28 10 19 9 20 -4 9 -13 -10 -16
-9 -21 10 -6 23 -1 38 13 38 5 0 7 -6 4 -13 -3 -8 2 -14 10 -14 8 0 15 3 14 6
-2 19 3 31 11 27 5 -4 7 4 3 16 -4 16 -2 19 9 13 11 -6 12 -5 2 6 -16 16 -17
55 -3 64 7 4 9 -2 5 -18 -4 -14 -2 -28 4 -31 7 -5 11 5 12 26 1 34 16 93 18
71 1 -7 5 -13 10 -13 5 0 7 10 3 22 -3 13 -1 19 5 15 6 -4 15 5 22 19 16 35
13 44 -5 14 -8 -14 -13 -17 -10 -7 3 10 6 28 6 39 0 16 3 18 14 9 11 -9 13 -5
10 24 -1 19 1 33 5 31 4 -3 15 8 25 25 9 16 13 29 8 29 -5 0 -14 -10 -21 -22
l-12 -23 5 22 c2 12 -2 27 -10 34 -8 6 -14 16 -14 22 0 5 9 2 20 -8 17 -15 23
-16 33 -5 9 10 9 11 0 6 -7 -4 -13 -2 -13 3 0 6 7 11 15 11 10 0 15 10 15 29
0 17 4 32 9 35 11 7 1 59 -13 68 -8 5 -7 11 2 20 6 6 12 20 12 31 0 11 4 15
11 11 8 -5 10 1 7 18 -3 18 0 25 10 24 10 -1 19 14 26 42 6 24 13 41 16 38 8
-7 5 46 -3 64 -4 8 -2 29 3 45 l10 30 -5 -35 c-4 -29 -3 -32 6 -17 6 11 9 32
5 47 -3 18 -1 30 7 34 9 3 9 5 0 5 -18 1 -16 36 2 51 9 7 15 29 15 51 0 21 5
41 10 44 6 3 9 18 9 33 -2 24 -2 24 -6 5 -2 -13 -9 -23 -14 -23 -12 0 -12 5 6
47 20 48 22 498 3 506 -10 4 -10 8 1 15 10 7 11 18 6 38 -8 27 -13 78 -15 147
0 18 -5 25 -12 21 -8 -5 -9 6 -4 37 4 31 3 39 -4 29 -8 -13 -10 -13 -10 2 0 9
-3 23 -6 32 -3 9 -1 16 6 16 6 0 8 -5 4 -12 -4 -7 -3 -8 5 -4 9 6 9 11 1 21
-9 11 -6 19 12 37 28 26 182 150 238 190 94 68 93 199 -3 247 -25 12 -114 33
-221 51 -98 16 -185 35 -194 42 -8 7 -18 12 -21 11 -3 -1 -8 1 -11 4 -3 4 0 3
6 0 7 -4 14 2 17 13 3 11 1 18 -4 14 -5 -3 -9 -1 -9 4 0 6 -10 8 -22 5 -16 -3
-19 -2 -10 4 9 7 10 17 1 41 -6 18 -8 40 -5 49 5 13 4 14 -8 4 -11 -9 -12 -20
-5 -43 5 -18 7 -34 4 -36 -3 -3 -8 9 -11 26 -4 18 -10 29 -15 27 -4 -3 -6 9
-4 26 5 35 15 52 15 25 0 -9 5 -14 10 -11 8 5 8 11 1 19 -6 7 -8 16 -4 20 4 4
-1 4 -12 0 -18 -7 -18 -6 -6 9 12 15 12 17 -3 11 -11 -4 -16 -1 -16 10 0 9 -4
16 -8 16 -5 0 -7 13 -6 29 1 15 -3 35 -8 42 -7 11 -8 9 -4 -5 5 -15 4 -17 -8
-7 -7 6 -13 23 -13 38 0 15 -6 29 -12 31 -6 2 -9 7 -7 11 3 3 -4 18 -15 31
-10 14 -19 20 -19 13 0 -6 5 -15 10 -18 6 -3 10 -14 10 -23 -1 -15 -2 -15 -11
1 -6 9 -14 15 -20 12 -5 -4 -9 -1 -9 4 0 6 -9 20 -21 32 -20 20 -19 56 2 44 6
-4 8 -12 6 -19 -3 -6 1 -17 8 -23 25 -23 26 17 3 50 -13 18 -23 34 -23 37 -1
3 -9 19 -18 35 -16 27 -17 28 -12 5 6 -24 6 -24 -10 -5 -8 11 -13 25 -11 32 3
7 2 12 -2 11 -16 -3 -42 15 -42 30 0 13 4 12 22 -4 l22 -19 -20 27 c-17 25
-43 41 -29 18 3 -5 1 -10 -5 -10 -7 0 -9 7 -6 16 4 10 -1 25 -10 35 -10 11
-14 19 -10 19 4 0 -2 14 -14 30 -12 17 -26 28 -31 25 -5 -4 -6 2 -2 12 6 17 5
17 -13 2 -34 -28 -48 -18 -49 33 0 26 -3 50 -7 53 -3 4 -19 -1 -35 -11 l-28
-18 22 25 22 24 -47 53 c-36 40 -50 50 -62 43 -8 -6 -11 -13 -7 -18 5 -4 12
-1 16 6 6 9 11 10 15 2 4 -6 3 -11 -2 -11 -5 0 -12 -9 -15 -21 -6 -22 -29 -22
-33 -1 -1 7 0 8 3 2 2 -5 9 -10 14 -10 6 0 5 8 -1 20 -8 15 -7 26 1 43 12 21
11 21 -6 7 -17 -14 -18 -14 -5 10 l13 25 -22 -19 c-11 -11 -24 -16 -28 -13 -3
4 -2 7 4 7 6 0 13 7 17 15 4 13 2 13 -14 5 -10 -5 -22 -15 -25 -20 -3 -6 -11
-10 -16 -10 -6 0 2 10 16 23 25 21 27 57 3 57 -5 0 -7 -4 -4 -9 8 -12 -3 -38
-18 -44 -17 -7 -14 36 4 58 13 17 13 18 -1 13 -8 -3 -26 3 -40 13 -14 11 -18
19 -10 19 11 0 11 3 1 15 -7 9 -21 13 -31 10 -20 -7 -35 10 -18 21 8 5 9 3 4
-6 -6 -9 -4 -11 4 -6 20 13 -3 25 -52 29 -9 1 -16 6 -14 12 2 5 12 9 22 7 14
-3 15 -1 4 11 -8 8 -19 13 -25 10 -7 -2 -15 1 -20 8 -5 8 -3 10 6 4 9 -5 11
-4 6 3 -5 8 -13 9 -24 3 -26 -13 -65 -6 -68 12 -1 9 2 20 7 23 5 3 8 0 7 -7
-2 -6 4 -14 12 -17 8 -2 12 -1 8 3 -4 5 -3 14 3 22 9 10 7 13 -8 13 -11 0 -28
10 -39 23 l-19 22 25 -20 25 -20 -19 22 c-10 13 -23 20 -28 17 -4 -3 -22 6
-39 20 -17 14 -35 26 -40 26 -6 0 -7 5 -3 11 4 8 -1 9 -17 4 -22 -7 -23 -7 -9
11 8 10 10 16 5 11 -4 -4 -19 3 -32 15 -22 20 -73 34 -73 20 0 -4 12 -15 26
-26 20 -14 28 -16 34 -6 5 8 10 8 14 2 7 -12 -49 -33 -69 -26 -8 4 -15 11 -15
17 0 7 4 7 12 -1 22 -22 32 -12 11 11 -28 30 -27 60 1 46 16 -8 16 -6 -4 10
-13 10 -27 18 -31 15 -4 -2 -10 3 -13 12 -3 8 -11 12 -17 9 -5 -4 -18 0 -27 8
-9 8 -26 17 -37 19 -11 2 -21 9 -21 16 -3 23 -4 24 -18 13 -11 -9 -16 -9 -22
0 -5 8 -3 9 6 4 8 -5 11 -4 6 3 -4 6 -13 9 -21 5 -11 -4 -14 0 -9 13 5 16 4
17 -6 4 -9 -11 -13 -12 -17 -2 -2 6 -9 12 -14 12 -18 0 -9 -16 19 -32 15 -10
22 -18 16 -18 -7 0 -22 8 -35 19 -21 17 -22 21 -9 37 8 11 11 16 6 12 -5 -4
-20 1 -33 12 -13 10 -31 16 -40 13 -12 -5 -14 -3 -8 8 4 8 4 11 0 6 -5 -4 -15
-1 -24 7 -14 12 -18 12 -30 -1 -12 -13 -11 -14 10 -8 13 4 21 4 17 0 -5 -5
-22 -9 -38 -10 l-30 -2 22 25 23 25 -25 -13 c-24 -13 -24 -12 -10 6 8 10 11
16 6 12 -5 -4 -15 0 -23 8 -8 8 -19 11 -25 8 -21 -13 -55 -12 -55 2 0 10 4 11
14 2 7 -6 16 -9 18 -6 3 2 -14 14 -36 26 -40 21 -68 30 -41 13 11 -6 9 -9 -6
-13 -15 -4 -18 -1 -14 14 2 10 1 18 -4 17 -27 -5 -64 2 -59 11 10 16 -20 22
-59 11 -20 -5 -34 -6 -31 -1 3 5 0 10 -7 13 -7 2 -3 2 9 1 12 -2 24 -1 27 4 5
8 -18 12 -67 12 -19 0 -26 3 -21 11 4 8 0 9 -16 4 -14 -4 -20 -3 -16 3 3 6
-13 13 -39 17 -31 4 -43 10 -39 18 4 7 4 9 -1 5 -4 -4 -14 -3 -22 4 -7 6 -16
8 -20 4 -3 -3 -1 -6 5 -6 7 0 12 -5 12 -10 0 -7 -7 -7 -20 0 -11 6 -25 8 -30
5 -5 -3 -13 3 -19 12 -9 16 -12 16 -21 3 -9 -13 -11 -13 -19 -1 -5 8 -15 16
-23 17 -7 2 -24 6 -38 9 -17 5 -21 4 -12 -3 11 -7 8 -11 -12 -14 -14 -3 -26
-1 -26 3 0 5 6 10 13 10 22 2 -47 17 -86 18 -23 1 -36 5 -32 11 3 6 -1 10 -10
10 -9 0 -14 -4 -11 -9 4 -6 -5 -6 -21 -1 -101 32 -176 32 -166 2 4 -14 3 -15
-5 -2 -8 10 -8 18 0 27 8 10 7 12 -3 8 -24 -9 -35 6 -109 150 -81 155 -100
181 -147 201 -44 19 -62 18 -113 -8z m795 -867 c40 -25 75 -59 75 -73 0 -17
42 -102 54 -110 6 -4 21 -8 34 -8 14 0 21 -4 17 -11 -4 -6 -13 -8 -21 -5 -21
8 -17 -16 17 -107 45 -119 62 -157 70 -157 4 0 5 -8 2 -19 -5 -19 28 -144 53
-198 8 -17 11 -38 8 -47 -3 -9 -1 -23 6 -31 6 -8 9 -19 5 -24 -3 -7 0 -8 9 -5
21 8 20 -10 -1 -42 -14 -22 -14 -27 -2 -35 8 -5 10 -9 6 -9 -4 0 -19 8 -33 17
-24 15 -33 15 -165 -12 -131 -26 -141 -26 -158 -11 -10 10 -45 66 -77 127 -55
104 -59 109 -90 109 -30 0 -33 -3 -44 -52 -20 -85 -50 -148 -71 -148 -36 0
-215 39 -249 54 -61 27 -70 39 -70 92 0 57 41 338 64 440 9 38 33 115 53 171
l38 102 145 4 c80 1 179 4 220 5 59 1 82 -2 105 -17z m-1347 -62 c9 -1 69 -2
132 -4 133 -3 192 -18 291 -76 82 -47 132 -98 167 -169 24 -48 27 -67 27 -150
0 -84 -3 -102 -28 -153 -56 -113 -188 -229 -316 -278 -31 -11 -105 -30 -164
-41 -106 -19 -109 -19 -140 -1 -41 24 -57 68 -111 301 -23 100 -45 180 -49
176 -3 -3 -9 7 -12 22 -4 16 -11 52 -17 79 -6 28 -14 59 -18 70 -5 11 -11 34
-15 50 -18 88 -18 87 6 106 17 13 20 19 9 19 -9 0 -21 -5 -28 -12 -9 -9 -12
-8 -12 4 0 9 7 19 16 22 8 3 12 10 9 16 -3 5 9 1 28 -10 33 -19 36 -20 83 -4
27 9 59 21 71 27 11 5 26 6 32 3 7 -5 11 2 12 16 1 17 3 18 6 6 2 -10 12 -18
21 -19z m1646 -35 c9 -3 14 -10 11 -15 -8 -12 25 -27 58 -27 15 0 47 -5 72
-12 24 -7 58 -10 74 -8 25 4 28 2 20 -9 -9 -10 -7 -13 10 -13 12 0 32 -5 44
-11 16 -9 22 -9 25 0 6 17 27 13 46 -8 17 -19 60 -36 82 -32 7 1 11 -7 10 -16
0 -10 4 -17 11 -16 7 2 10 -4 6 -13 -3 -9 -2 -19 3 -23 14 -9 54 -69 54 -79 0
-6 6 -21 13 -35 l13 -25 44 34 c23 19 47 34 51 34 10 0 7 36 -4 46 -4 4 -7 -1
-7 -11 0 -14 -3 -16 -11 -8 -13 13 -4 33 16 33 8 0 20 -8 27 -17 14 -20 100
-63 124 -63 8 0 13 -4 10 -8 -2 -4 10 -9 27 -9 45 -2 65 -7 80 -22 9 -10 9
-11 -3 -7 -8 2 -28 7 -45 11 l-30 6 30 -21 c17 -11 38 -20 48 -20 9 0 17 -7
17 -16 0 -14 3 -14 15 -4 8 7 15 8 15 3 0 -14 69 -58 103 -67 15 -3 25 -11 22
-16 -3 -6 -2 -10 3 -10 11 0 97 -79 97 -90 0 -5 3 -12 8 -16 4 -4 7 -12 7 -18
0 -6 -10 0 -21 14 l-21 25 7 -28 c5 -24 2 -30 -15 -34 -17 -4 -19 -8 -8 -14
21 -14 -11 -30 -44 -23 -23 4 -27 3 -22 -10 3 -9 2 -16 -4 -16 -6 0 -12 5 -14
11 -3 9 -9 9 -25 0 -12 -6 -31 -11 -43 -11 -12 0 -18 -4 -15 -10 4 -6 -6 -10
-24 -10 -16 0 -33 -5 -37 -12 -5 -7 -3 -8 6 -3 8 5 11 4 7 -3 -8 -12 -25 -11
-46 2 -10 6 -12 5 -7 -3 6 -8 1 -10 -18 -5 -18 4 -28 2 -32 -9 -3 -9 -12 -13
-20 -10 -18 7 -74 -16 -74 -30 0 -6 -3 -7 -6 -4 -4 3 -15 2 -26 -4 -15 -8 -18
-18 -15 -45 3 -22 1 -34 -7 -34 -17 0 -48 -78 -41 -103 5 -17 4 -19 -4 -7 -8
12 -14 5 -30 -30 -13 -29 -17 -48 -11 -54 18 -18 11 -38 -10 -31 -26 8 -48 -4
-29 -16 11 -7 11 -9 1 -9 -7 0 -10 -5 -6 -11 7 -12 -27 -10 -139 10 -66 11
-78 17 -52 27 9 4 20 2 25 -6 4 -6 16 -10 26 -8 14 2 8 9 -24 26 -25 13 -52
20 -63 17 -13 -4 -19 -2 -19 9 0 13 -37 33 -44 24 -2 -1 -9 -12 -15 -23 -12
-19 -12 -19 -6 -1 4 15 -5 30 -36 58 -23 21 -45 35 -50 32 -5 -3 -6 2 -3 10 4
11 0 16 -12 16 -14 0 -15 3 -6 8 9 7 10 15 3 35 -6 15 -8 27 -4 27 4 0 -3 9
-16 21 -24 23 -22 35 4 25 9 -3 13 -10 10 -16 -3 -5 0 -10 8 -10 9 0 27 36 50
103 49 143 52 153 33 160 -9 4 -16 16 -16 27 0 26 7 25 31 -2 l18 -23 1 23 c0
12 -9 31 -20 42 -11 11 -20 27 -20 35 0 8 -4 15 -10 15 -5 0 -10 -8 -10 -17 0
-15 -2 -16 -10 -3 -6 8 -7 27 -4 41 4 19 -4 40 -27 75 -43 65 -61 80 -70 57
-4 -10 -3 -22 1 -28 13 -18 21 -65 10 -65 -9 0 -14 17 -13 48 1 6 -3 12 -8 12
-14 0 -11 36 4 49 8 6 16 8 20 5 3 -3 3 3 0 15 -3 11 -11 26 -19 32 -8 6 -14
16 -14 21 0 5 -7 20 -17 34 -12 19 -18 22 -24 12 -6 -9 -9 -7 -10 10 -1 12 -2
28 -3 35 0 6 -11 16 -23 22 -31 13 -33 75 -3 75 11 0 20 7 20 15 0 17 -9 19
-44 5 -20 -7 -24 -6 -19 5 5 15 39 20 67 9z m1296 -664 c0 -10 -14 -14 -39
-10 -10 1 -10 -3 3 -15 13 -14 27 -16 62 -11 49 6 89 -7 81 -28 -3 -8 11 -22
33 -35 38 -21 38 -21 33 -1 -6 24 24 29 33 5 4 -8 11 -12 18 -8 6 4 5 -1 -3
-10 -7 -9 -17 -14 -22 -11 -5 3 -9 1 -9 -5 0 -6 10 -15 23 -22 12 -6 29 -20
37 -30 13 -17 20 -18 48 -8 17 6 32 14 32 18 0 3 -11 19 -25 34 -16 17 -21 27
-12 27 7 0 24 -19 37 -42 12 -22 18 -38 11 -34 -6 4 -11 2 -11 -4 0 -6 -4 -9
-9 -5 -5 3 -12 1 -16 -5 -4 -6 -11 -8 -16 -5 -5 4 -9 1 -9 -4 0 -6 4 -11 8
-11 15 0 53 -41 47 -51 -4 -5 -1 -9 4 -9 6 0 18 -17 27 -37 15 -34 17 -36 25
-18 9 18 9 18 5 -3 -5 -24 14 -82 26 -82 4 0 4 -8 1 -17 -6 -16 -5 -17 13 -3
10 8 24 22 31 30 14 16 16 10 7 -14 -3 -9 -13 -16 -22 -16 -8 0 -12 -3 -9 -7
4 -3 2 -12 -3 -18 -7 -8 -7 -30 0 -65 13 -68 13 -150 0 -150 -5 0 -16 -15 -24
-32 -22 -49 -43 -71 -58 -62 -7 4 -41 32 -75 60 -55 47 -102 80 -104 72 0 -2
-1 -41 -2 -88 -2 -67 -8 -95 -26 -130 -40 -77 -96 -112 -173 -112 -121 1 -169
27 -335 177 -50 45 -104 132 -125 199 -12 39 -28 76 -35 82 -15 13 -17 40 -3
49 6 3 10 17 10 30 0 32 10 56 21 50 4 -3 18 13 29 36 12 23 30 44 41 46 10 3
19 9 19 14 0 5 9 9 21 9 11 0 18 -4 14 -9 -3 -5 11 -15 30 -21 19 -6 35 -16
35 -21 0 -5 5 -9 10 -9 6 0 10 7 10 15 0 8 -7 15 -15 15 -12 0 -15 13 -13 63
l1 62 7 -45 8 -45 -1 56 c0 53 17 119 32 119 4 0 22 13 41 30 18 16 37 27 42
24 11 -7 49 6 44 15 -3 4 9 8 26 9 17 1 40 9 51 17 24 17 57 20 57 5z m-2295
-601 c106 -109 297 -227 450 -278 168 -56 232 -65 446 -64 l196 0 7 -81 c4
-45 9 -236 12 -426 5 -316 6 -347 24 -375 17 -27 19 -28 25 -10 18 62 65 133
111 167 70 54 76 51 68 -24 -10 -93 -25 -121 -98 -178 -37 -29 -73 -64 -80
-79 -15 -28 -30 -141 -19 -141 4 0 19 12 34 26 23 22 41 28 98 33 39 4 72 9
74 11 2 3 17 25 33 50 l29 45 3 -40 c8 -91 -28 -149 -118 -195 -36 -18 -55
-21 -102 -17 l-58 5 -26 -43 c-27 -46 -47 -105 -36 -105 4 0 51 16 105 35 54
19 108 35 120 35 30 0 107 -33 107 -46 0 -17 -52 -62 -92 -79 -30 -12 -58 -14
-135 -9 l-98 7 -83 -57 c-46 -32 -86 -55 -89 -52 -3 3 -27 -25 -53 -62 -61
-87 -218 -236 -317 -302 -113 -75 -279 -153 -438 -206 l-138 -46 -76 22 c-115
34 -296 107 -386 155 -168 91 -350 244 -431 361 -32 46 -50 61 -109 89 -38 18
-108 41 -155 50 -117 24 -172 61 -194 133 -8 23 -7 23 17 -2 33 -33 64 -40
142 -31 54 5 65 10 65 25 0 25 -33 47 -102 66 -40 12 -68 28 -98 58 -69 68
-87 108 -95 215 l-7 93 31 -23 c34 -25 81 -92 106 -152 18 -44 81 -117 101
-117 37 0 3 172 -50 260 -71 116 -89 162 -93 235 -2 39 -5 98 -7 133 l-4 62
20 -22 c11 -13 33 -38 51 -57 39 -44 56 -92 57 -162 0 -69 16 -119 38 -119 15
0 17 27 17 287 0 159 4 359 9 446 l8 158 142 -7 c154 -7 265 3 405 37 193 48
405 166 541 303 25 24 47 45 50 45 3 1 24 -17 45 -40z m-2253 -2160 c-12 -5
-6 -10 23 -18 22 -6 61 -24 86 -39 25 -15 70 -42 100 -59 42 -26 55 -30 57
-18 5 22 15 18 29 -10 8 -19 8 -24 0 -19 -7 3 -4 -1 6 -9 10 -9 16 -24 14 -38
-5 -31 22 -76 34 -57 13 20 8 -48 -9 -129 -9 -40 -19 -73 -23 -73 -16 0 -21
24 -7 34 8 6 17 22 21 36 l6 25 -18 -22 c-10 -12 -33 -26 -52 -31 -31 -8 -34
-12 -31 -42 1 -19 -6 -46 -17 -66 -17 -28 -17 -35 -6 -51 13 -17 15 -17 31 -1
13 13 15 20 6 31 -7 8 -9 17 -5 20 3 4 12 -1 19 -11 9 -11 13 -13 14 -4 0 7 5
10 11 7 6 -4 5 2 -3 14 -7 12 -18 21 -25 21 -7 0 -13 7 -13 15 0 13 3 13 20 3
11 -7 20 -18 20 -25 0 -7 4 -13 10 -13 5 0 7 6 4 13 -3 8 2 19 10 26 12 10 14
9 9 -8 -3 -12 -2 -21 2 -21 3 0 42 33 86 72 44 40 87 76 95 81 9 5 47 -10 112
-47 53 -30 118 -65 144 -77 26 -13 51 -33 58 -48 7 -14 27 -158 45 -319 18
-162 35 -296 38 -298 2 -3 37 73 78 167 40 95 91 196 113 226 36 49 43 53 80
53 23 0 84 -7 137 -16 l97 -17 12 -36 c6 -20 14 -58 18 -86 l7 -50 33 74 33
73 42 -6 c23 -3 98 -13 167 -21 157 -20 167 -28 178 -143 5 -48 12 -76 19 -75
7 2 9 -11 6 -36 -4 -27 -1 -40 9 -43 10 -4 15 3 16 25 2 17 7 36 13 43 5 6 9
16 7 20 -1 5 5 23 14 39 8 17 21 54 28 84 l13 53 226 -4 c226 -4 226 -4 254
-30 24 -23 27 -32 27 -90 0 -57 3 -67 28 -90 15 -14 34 -28 42 -31 11 -4 10
-6 -4 -6 -12 -1 -16 -6 -12 -16 3 -8 1 -15 -4 -15 -5 0 -6 -7 -3 -17 4 -11 3
-14 -6 -9 -7 5 -10 14 -7 21 6 17 -24 29 -38 15 -5 -5 -18 -10 -28 -10 -25 0
-38 -31 -38 -92 0 -30 -6 -60 -12 -67 -10 -10 -10 -12 -1 -7 8 5 8 -2 -2 -20
-16 -32 -12 -44 16 -44 10 0 19 -4 19 -10 0 -5 7 -7 15 -3 9 3 15 2 13 -3 -2
-5 1 -9 7 -9 13 0 22 -47 24 -125 0 -36 5 -79 10 -95 9 -34 30 -30 -164 -35
-81 -2 -92 -4 -55 -10 39 -6 33 -7 -37 -8 -50 -1 -83 2 -83 8 0 6 -18 10 -40
10 -22 0 -40 -4 -40 -10 0 -5 16 -10 37 -10 20 0 34 -3 31 -6 -8 -8 -149 7
-143 15 2 4 -15 8 -38 9 -57 4 -78 11 -99 36 -9 11 -17 16 -18 11 0 -9 -200
-13 -300 -6 -29 2 -32 4 -15 11 18 8 18 9 -5 10 -14 0 -34 7 -44 15 -11 8 -29
15 -39 15 -16 0 -17 -2 -7 -15 7 -9 10 -18 6 -22 -3 -3 -6 -1 -6 5 0 7 -17 12
-42 13 -30 0 -37 3 -24 8 26 10 6 17 -59 20 -27 1 -54 7 -59 12 -15 14 -69 12
-60 -3 4 -7 3 -8 -5 -4 -6 4 -9 12 -5 17 3 6 -2 19 -11 29 -12 13 -26 17 -55
13 -22 -3 -56 1 -82 10 -23 9 -76 26 -116 38 -59 18 -80 30 -108 62 -19 22
-34 47 -34 54 0 10 -24 13 -99 13 -54 0 -112 3 -128 6 -41 8 -65 55 -93 176
-29 132 -51 140 -137 48 -61 -66 -84 -73 -128 -39 -19 15 -29 19 -34 11 -5 -8
-18 0 -40 22 -19 19 -40 32 -47 29 -9 -3 -12 0 -9 9 3 8 -6 24 -21 37 -21 18
-28 20 -35 10 -7 -11 -9 -9 -9 5 0 11 -5 34 -12 52 -10 30 -13 31 -24 16 -12
-15 -13 -15 -14 -1 0 12 -12 15 -51 16 -28 0 -54 4 -58 9 -3 5 -28 20 -56 34
-27 13 -65 37 -84 52 -19 15 -38 25 -43 22 -4 -3 -8 3 -8 12 0 14 -3 15 -12 6
-16 -16 -28 -15 -28 3 0 8 5 15 10 15 6 0 10 5 10 11 0 6 -7 8 -16 5 -8 -3
-12 -2 -9 4 3 5 -7 27 -23 47 -17 21 -33 49 -37 62 -6 19 -9 21 -17 10 -7 -10
-8 -8 -5 9 3 12 2 22 -2 22 -7 0 -27 97 -34 159 -2 24 -3 24 -19 7 -10 -10
-18 -13 -18 -7 0 5 7 16 15 24 8 9 11 17 6 19 -4 2 -11 18 -14 37 -5 26 -4 32
7 28 9 -4 19 12 32 51 11 31 25 63 32 71 11 12 11 15 0 22 -10 7 -9 9 5 9 9 0
26 9 37 20 22 22 27 39 7 21 -8 -6 -18 -7 -22 -3 -5 4 -5 1 -1 -5 4 -7 2 -13
-3 -13 -6 0 -11 8 -11 18 0 11 12 21 34 28 30 9 33 8 28 -9 -4 -18 -2 -17 22
4 15 13 24 29 21 37 -4 10 0 13 15 9 11 -3 45 3 77 13 52 16 55 18 28 22 -16
2 23 3 87 3 64 0 109 -3 100 -6z"/>
<path d="M17226 5679 c-65 -4 -122 -12 -127 -16 -12 -13 -46 -133 -62 -223
-20 -109 -37 -312 -37 -445 0 -116 4 -123 81 -146 41 -12 237 -36 260 -31 19
3 36 52 53 143 10 59 13 64 38 67 25 3 34 -6 92 -95 35 -54 76 -109 89 -121
l25 -24 59 21 c32 11 101 31 153 45 107 27 104 22 76 121 -8 28 -22 77 -32
110 -36 126 -189 450 -254 539 -16 21 -41 44 -56 52 -29 16 -157 17 -358 3z
m334 -121 c92 -144 237 -458 256 -558 6 -28 6 -29 -91 -59 -54 -17 -101 -29
-105 -26 -4 2 -38 55 -75 116 l-68 111 -65 -7 c-36 -4 -76 -11 -88 -15 -25
-10 -40 -49 -50 -133 -3 -31 -11 -60 -16 -63 -12 -8 -170 5 -185 14 -22 15 22
457 59 587 l23 80 65 6 c36 3 118 6 183 7 l118 2 39 -62z"/>
<path d="M17325 5423 c-3 -21 -11 -60 -16 -86 -5 -26 -9 -61 -9 -77 l0 -30 79
0 c44 0 82 4 86 10 8 14 -36 96 -88 163 l-46 59 -6 -39z"/>
<path d="M17903 5606 c4 -6 7 -13 7 -17 0 -11 -55 -7 -63 5 -4 6 -5 0 -3 -14
3 -14 5 -28 5 -32 1 -4 21 -32 46 -62 25 -31 45 -58 45 -61 0 -3 9 -14 20 -25
12 -12 18 -26 14 -32 -4 -7 -3 -8 4 -4 7 4 12 4 12 -1 0 -4 10 -20 23 -35 12
-14 30 -39 39 -55 29 -48 42 -67 69 -103 30 -40 53 -100 38 -100 -5 0 -9 -12
-9 -26 0 -33 -21 -104 -30 -104 -4 0 -7 -18 -7 -40 0 -22 -6 -46 -13 -55 -7
-8 -10 -21 -7 -29 3 -7 -1 -23 -9 -34 -12 -17 -11 -24 2 -51 24 -49 78 -86
162 -111 42 -12 93 -31 112 -40 19 -10 52 -26 73 -36 l38 -19 19 25 c11 14 20
32 20 42 0 9 16 57 35 107 19 50 40 118 47 152 17 82 5 75 342 202 32 12 74
36 95 54 l36 31 -20 38 c-11 20 -27 41 -35 46 -31 16 -217 105 -265 125 -27
12 -76 33 -107 47 l-57 25 -52 -42 c-93 -75 -83 -74 -114 -20 -41 70 -97 140
-122 152 -26 12 -203 46 -292 56 -46 5 -70 13 -85 29 -12 12 -18 17 -13 12z
m222 -121 c141 -25 147 -28 188 -97 20 -33 48 -89 63 -124 15 -35 31 -64 36
-64 5 0 49 32 99 71 l90 71 57 -23 c31 -12 104 -45 162 -71 119 -56 120 -51
-14 -99 -44 -17 -127 -52 -182 -80 l-101 -50 -48 -159 c-26 -87 -51 -163 -55
-170 -6 -9 -14 -8 -36 3 -16 8 -67 27 -114 42 -47 15 -89 31 -93 35 -5 4 10
77 32 162 23 85 41 161 41 170 0 18 -92 160 -192 295 -37 51 -68 95 -68 98 0
9 42 5 135 -10z"/>
<path d="M16317 5520 c-98 -16 -315 -93 -330 -117 -3 -5 5 -36 19 -68 13 -33
51 -143 84 -245 32 -102 68 -213 79 -245 11 -33 20 -69 20 -80 -1 -41 29 -100
63 -122 42 -28 70 -28 138 -2 30 11 69 24 85 28 49 13 174 79 222 118 58 48
127 138 161 210 23 49 27 71 27 148 0 85 -3 95 -40 168 -36 74 -94 137 -125
137 -6 0 -8 4 -5 10 3 6 -1 7 -9 4 -9 -3 -16 -1 -16 5 0 6 -5 11 -10 11 -6 0
-27 7 -48 16 -20 9 -53 17 -72 19 -156 12 -192 13 -243 5z m284 -96 c80 -38
131 -101 154 -192 50 -195 -122 -411 -390 -491 -66 -20 -71 -20 -83 -3 -7 9
-35 87 -62 172 -75 239 -141 444 -146 456 -5 13 45 36 136 63 94 28 104 29
220 27 94 -1 112 -5 171 -32z"/>
<path d="M16322 5298 c-32 -11 -33 -13 -27 -52 8 -52 31 -142 57 -228 23 -77
29 -80 98 -45 32 16 56 40 87 86 72 108 69 157 -15 215 -34 24 -54 31 -105 33
-34 1 -77 -3 -95 -9z"/>
<path d="M23820 5330 c-36 -22 -71 -40 -79 -40 -7 0 -29 14 -48 30 -18 17 -43
30 -54 30 -23 0 -57 -32 -81 -78 -24 -46 -59 -51 -124 -18 -48 24 -56 26 -81
14 -20 -10 -30 -26 -41 -66 -9 -34 -24 -59 -38 -69 -21 -13 -29 -13 -88 7 -49
17 -71 20 -93 13 -27 -9 -28 -13 -33 -89 -6 -75 -22 -130 -45 -146 -5 -4 -32
-8 -60 -8 -54 0 -92 -15 -109 -42 -8 -13 -5 -22 13 -42 l23 -24 -24 -15 c-12
-8 -40 -20 -60 -27 -34 -10 -68 -42 -68 -62 0 -4 13 -23 30 -41 28 -32 29 -35
12 -50 -9 -8 -28 -17 -41 -19 -13 -1 -30 -13 -38 -24 -13 -20 -11 -24 18 -52
l32 -30 -12 -86 c-26 -189 -25 -352 5 -611 l6 -51 -58 -34 c-116 -70 -144
-137 -144 -348 0 -159 10 -203 58 -267 37 -48 116 -99 173 -110 21 -4 28 -12
32 -37 41 -262 183 -500 405 -679 83 -67 238 -161 307 -186 l45 -17 0 -192 0
-193 -86 -3 c-65 -2 -88 0 -92 10 -5 15 -51 10 -137 -13 -27 -7 -104 -23 -170
-35 -162 -30 -315 -80 -464 -151 -191 -91 -340 -197 -491 -350 -77 -77 -190
-221 -205 -261 -18 -47 454 -369 734 -500 58 -28 129 -60 156 -73 172 -82 554
-194 745 -220 58 -8 141 -22 185 -30 44 -8 159 -19 255 -24 96 -5 188 -12 203
-16 16 -4 38 -3 50 3 12 6 96 13 187 16 91 3 192 11 225 17 33 6 80 12 105 14
132 9 419 80 630 155 207 73 426 174 610 281 158 92 393 257 398 280 4 20 -68
138 -144 235 -253 327 -656 555 -1124 638 -47 9 -118 23 -159 33 -64 15 -75
15 -85 2 -8 -10 -33 -14 -93 -14 l-83 0 1 195 1 195 107 53 c339 168 571 459
645 812 11 50 14 55 43 61 90 18 171 87 198 168 14 43 16 81 13 229 -3 159 -6
181 -25 219 -28 52 -84 98 -148 122 -38 15 -49 24 -47 38 11 77 12 211 3 278
-18 126 -39 180 -83 215 -21 17 -38 35 -38 40 0 5 17 10 37 12 48 4 63 31 63
119 0 96 -17 177 -52 238 -31 56 -32 73 -13 182 6 31 3 39 -16 53 -27 18 -101
21 -167 6 -54 -13 -63 -7 -50 28 16 41 3 81 -30 93 -21 9 -42 7 -89 -5 -87
-23 -87 -23 -78 27 19 113 19 106 -10 113 -15 4 -52 3 -83 -2 -31 -4 -78 -8
-105 -8 -45 -1 -50 2 -101 58 l-54 58 -54 -6 c-43 -6 -64 -3 -102 14 -37 15
-59 19 -100 14 -41 -5 -66 -2 -108 14 -41 15 -76 20 -134 19 -68 -1 -86 2
-131 26 -72 37 -105 35 -183 -13z m830 -2599 c0 -27 -23 -62 -49 -76 -26 -13
-93 -15 -476 -15 l-447 0 -29 29 c-16 16 -29 39 -29 50 0 21 0 21 515 21 313
0 515 -4 515 -9z"/>
<path d="M9960 5300 c-36 -22 -71 -40 -79 -40 -7 0 -29 14 -48 30 -18 17 -43
30 -54 30 -23 0 -57 -32 -81 -78 -23 -43 -59 -50 -115 -23 -49 24 -96 27 -110
9 -6 -7 -16 -35 -23 -61 -8 -29 -22 -54 -36 -64 -21 -13 -29 -12 -93 8 -58 19
-75 21 -96 11 -23 -11 -25 -16 -25 -83 0 -54 -5 -83 -22 -115 l-22 -44 -55 0
c-59 0 -97 -14 -115 -42 -8 -13 -5 -22 13 -42 l23 -24 -24 -15 c-12 -8 -40
-20 -60 -27 -34 -10 -68 -42 -68 -61 0 -4 12 -22 27 -39 31 -37 23 -62 -22
-70 -15 -3 -34 -15 -42 -26 -13 -20 -12 -24 17 -51 l31 -29 -15 -135 c-20
-165 -20 -252 -1 -444 8 -82 15 -156 15 -162 0 -7 -20 -22 -44 -33 -56 -27
-99 -70 -128 -128 -21 -44 -23 -59 -23 -222 0 -197 7 -230 63 -292 39 -43 85
-70 147 -87 l40 -10 23 -103 c33 -148 109 -306 205 -427 101 -126 292 -274
455 -352 l82 -39 0 -190 0 -190 -62 -1 c-35 0 -73 -2 -86 -5 -14 -2 -25 2 -29
11 -6 18 -51 14 -138 -10 -27 -7 -104 -23 -170 -35 -372 -69 -706 -245 -960
-505 -74 -76 -186 -219 -200 -257 -4 -10 12 -31 52 -65 69 -59 296 -223 362
-260 25 -15 80 -47 121 -71 41 -25 131 -72 200 -104 69 -33 148 -70 175 -83
164 -77 568 -193 755 -216 52 -6 124 -17 160 -25 95 -20 822 -20 940 0 47 8
123 20 170 26 314 39 796 215 1143 416 141 82 395 258 404 279 5 15 -13 53
-65 133 -67 104 -129 177 -235 278 -240 230 -562 391 -907 454 -63 12 -137 28
-165 35 -86 24 -132 28 -142 13 -6 -9 -30 -12 -90 -10 l-83 4 1 191 1 192 111
55 c61 30 125 66 143 80 19 14 51 38 71 53 112 83 245 237 316 367 48 87 99
231 113 318 6 39 10 43 48 53 83 23 144 68 180 134 19 37 21 55 21 240 0 187
-1 203 -22 241 -35 65 -94 109 -187 138 -12 4 -16 12 -11 24 14 34 17 208 6
282 -19 125 -40 178 -83 212 -50 39 -49 55 1 50 37 -4 39 -2 52 35 27 80 6
234 -43 321 -31 55 -32 73 -13 184 6 32 4 38 -19 53 -26 17 -54 18 -196 3 -18
-2 -24 1 -21 12 3 8 5 33 5 55 1 34 -3 41 -29 54 -26 12 -37 12 -91 -2 -88
-24 -88 -24 -79 26 19 113 19 106 -10 113 -15 4 -52 3 -83 -2 -31 -4 -78 -8
-105 -8 -45 -1 -50 2 -101 58 l-54 58 -56 -6 c-43 -6 -62 -3 -88 11 -24 13
-53 17 -107 16 -53 -2 -83 3 -105 15 -22 12 -57 17 -126 17 -83 1 -101 4 -145
28 -70 38 -107 35 -185 -13z m838 -2597 c-24 -51 -36 -67 -60 -79 -22 -11
-108 -14 -473 -14 l-447 0 -29 29 c-16 16 -29 39 -29 50 0 21 0 21 521 21 286
0 519 -3 517 -7z"/>
<path d="M15355 5219 c-183 -138 -459 -394 -481 -446 -17 -40 -6 -78 50 -156
39 -55 43 -57 76 -51 54 9 90 32 166 106 l71 69 7 -55 c3 -30 20 -91 37 -136
21 -55 28 -84 21 -89 -7 -4 -8 -12 -2 -21 9 -13 10 -13 10 0 1 8 19 -23 41
-69 22 -47 38 -93 36 -102 -3 -10 2 -19 12 -22 9 -2 23 -23 31 -46 12 -38 17
-42 39 -38 14 3 54 9 89 13 57 6 66 10 90 42 15 19 41 49 57 66 17 17 43 49
60 71 16 22 38 49 48 60 10 11 20 29 23 41 6 23 -22 94 -36 94 -13 0 -90 204
-106 279 -18 85 -18 193 1 306 20 125 18 126 -147 133 l-123 4 -70 -53z m197
-44 c-1 -11 -5 -79 -9 -151 -7 -158 8 -239 72 -389 78 -184 77 -159 7 -261
-69 -102 -100 -136 -114 -132 -5 2 -22 35 -38 73 -15 39 -48 111 -73 160 -62
126 -76 175 -86 298 -4 59 -12 112 -17 117 -13 13 -111 -62 -211 -160 l-81
-80 -31 42 c-17 23 -31 49 -31 58 0 24 191 206 379 360 106 87 111 90 176 87
54 -2 60 -4 57 -22z"/>
<path d="M2002 5093 c-12 -2 -34 -20 -48 -39 -14 -18 -30 -32 -34 -29 -28 17
-41 -153 -14 -180 9 -8 12 -15 7 -15 -4 0 0 -5 10 -11 21 -12 38 -4 30 16 -7
19 26 9 45 -14 9 -11 11 -11 6 -2 -5 10 -3 13 7 9 12 -5 14 2 11 28 -3 25 0
36 12 40 26 10 33 -6 12 -22 -13 -9 -17 -17 -10 -24 12 -12 57 28 81 73 23 44
23 118 1 141 -10 10 -18 22 -18 27 0 9 -55 10 -98 2z"/>
<path d="M19075 5001 c-22 -10 -54 -30 -72 -45 -55 -46 -55 -130 0 -254 10
-24 17 -45 15 -47 -1 -1 -30 15 -62 36 -79 51 -108 51 -142 -1 -32 -48 -57
-131 -55 -179 1 -30 12 -61 44 -129 27 -57 206 -204 301 -248 66 -30 168 -41
221 -24 44 14 110 71 131 112 15 30 26 198 12 198 -10 0 -31 40 -24 47 3 3 21
-4 40 -16 24 -15 33 -27 29 -38 -4 -9 -2 -14 3 -11 5 4 35 -14 67 -38 56 -42
96 -56 98 -34 2 15 6 30 9 33 5 4 9 51 11 107 2 60 -30 188 -61 250 -51 100
-222 240 -344 282 -68 23 -169 23 -221 -1z m250 -80 c134 -63 234 -160 275
-269 22 -57 27 -137 9 -147 -6 -4 -52 21 -102 55 -89 60 -92 63 -93 101 0 50
-43 97 -96 105 -31 6 -38 3 -54 -21 -17 -26 -17 -27 51 -158 59 -114 68 -139
69 -187 1 -101 -63 -170 -158 -170 -92 1 -185 51 -304 164 -69 66 -96 117 -88
167 7 42 36 99 51 99 6 0 42 -22 80 -48 69 -47 70 -48 67 -89 -3 -34 1 -45 25
-67 38 -36 91 -33 112 6 15 26 13 32 -58 172 -91 179 -101 229 -53 274 63 59
160 63 267 13z"/>
<path d="M17190 4399 c-30 -28 -75 -65 -100 -82 -25 -17 -47 -33 -50 -37 -3
-3 -38 -25 -78 -48 -83 -47 -232 -106 -324 -126 -137 -32 -354 -41 -485 -21
-13 2 -25 0 -27 -4 -14 -21 -17 -100 -22 -470 -5 -352 -3 -403 9 -393 8 7 17
29 21 50 3 21 16 48 30 61 42 39 50 73 33 128 -33 104 -28 180 17 279 28 60
46 70 46 24 0 -16 11 -53 23 -83 37 -82 40 -116 17 -162 -23 -45 -25 -65 -7
-65 12 0 98 49 129 73 22 18 48 78 48 112 0 47 38 102 112 162 40 32 84 76 98
97 l25 38 14 -33 c25 -61 25 -111 2 -158 -35 -68 -87 -118 -141 -136 -57 -19
-74 -36 -65 -65 14 -45 72 -49 154 -10 64 31 96 34 157 15 36 -11 70 -15 97
-11 l42 6 -50 -45 c-98 -89 -179 -105 -303 -60 -38 14 -86 25 -106 25 -70 0
-139 -57 -97 -80 11 -5 35 -10 53 -10 58 0 104 -19 139 -56 19 -20 44 -47 57
-59 19 -20 20 -24 6 -29 -37 -14 -77 -2 -204 59 -74 36 -141 65 -150 65 -23 0
-93 -52 -119 -88 -12 -17 -24 -43 -27 -59 l-6 -29 59 -1 c32 0 84 -4 115 -8
46 -6 63 -4 83 9 46 30 30 -10 -27 -68 -68 -70 -119 -87 -184 -63 l-44 16 0
-63 c0 -93 12 -104 135 -122 55 -9 112 -13 128 -10 19 4 27 1 27 -9 0 -25 -69
-93 -106 -105 -31 -10 -40 -9 -84 14 l-50 26 0 -23 c0 -12 21 -58 46 -102 25
-44 62 -109 82 -145 51 -93 112 -170 184 -232 182 -157 339 -242 605 -330
l122 -40 58 17 c100 30 146 46 213 72 63 24 224 100 245 115 5 5 45 31 89 60
82 53 246 207 287 268 13 19 26 37 29 40 4 3 15 21 26 40 10 19 24 42 31 50 7
9 23 45 37 80 13 36 34 87 46 113 25 56 20 70 -14 38 -59 -55 -161 -26 -223
63 -35 52 -35 73 0 54 13 -7 73 -13 142 -14 l120 -2 18 60 c20 68 12 94 -20
66 -56 -49 -158 -66 -228 -38 l-30 13 27 7 c30 9 33 11 102 72 45 40 53 43
103 43 l55 0 -5 50 c-4 41 -10 54 -38 78 -34 29 -140 87 -158 87 -21 0 -50
-44 -57 -84 -3 -22 -17 -64 -30 -93 -38 -88 -94 -82 -130 14 -30 79 8 151 100
189 53 22 58 37 16 59 -48 25 -89 19 -160 -25 -58 -36 -72 -40 -128 -40 -48 0
-75 6 -115 26 -44 23 -49 28 -32 34 11 5 31 19 44 32 62 59 76 65 138 57 158
-20 203 -6 164 50 -12 16 -37 39 -55 50 -65 41 -69 153 -7 224 39 45 51 70 51
111 0 45 18 47 46 3 40 -60 47 -100 39 -237 l-7 -127 39 -39 c63 -65 186 -174
195 -174 13 0 9 18 -13 63 -33 64 -36 151 -8 237 l23 71 16 -34 c9 -18 33 -61
54 -95 49 -79 55 -129 27 -215 -24 -70 -21 -85 18 -121 19 -18 21 -18 27 -1 8
19 -2 526 -12 692 l-7 102 -142 -6 c-249 -11 -452 30 -649 128 -84 43 -212
132 -278 195 -32 30 -64 54 -70 54 -7 -1 -38 -24 -68 -51z"/>
<path d="M19559 2308 c-84 -44 -179 -122 -179 -149 1 -8 23 -63 49 -124 27
-60 45 -111 41 -113 -4 -1 -44 20 -88 48 -106 65 -127 65 -210 1 -35 -28 -70
-47 -78 -44 -8 3 -14 -1 -14 -8 0 -7 -3 -10 -6 -6 -4 3 -13 0 -21 -8 -8 -8
-32 -15 -53 -15 -21 0 -45 -7 -54 -15 -8 -8 -21 -15 -28 -15 -7 0 -26 -9 -43
-20 -16 -12 -50 -30 -75 -42 -111 -51 -216 -102 -226 -110 -8 -6 -8 -24 2 -66
8 -31 23 -93 33 -137 11 -44 23 -91 27 -105 6 -21 0 -18 -41 22 -26 25 -61 52
-79 59 -17 7 -33 15 -36 18 -10 11 -75 33 -140 48 -78 18 -212 12 -315 -13
-97 -24 -100 -26 -81 -108 9 -37 18 -96 22 -131 3 -36 10 -79 15 -97 5 -18 9
-51 9 -73 0 -23 4 -45 9 -50 5 -6 11 -28 13 -50 3 -22 9 -49 15 -60 6 -11 16
-45 23 -75 17 -75 25 -88 65 -104 25 -11 49 -12 93 -6 32 4 70 6 85 3 32 -6
177 48 211 79 115 104 153 158 182 257 20 68 23 74 31 51 5 -14 20 -53 33 -88
17 -46 30 -67 51 -77 41 -22 61 -19 155 20 46 19 90 35 97 36 6 0 41 18 77 39
36 22 80 46 98 54 17 8 32 20 32 25 0 6 25 25 55 42 l55 31 -33 60 c-46 86
-74 113 -124 121 -42 7 -47 13 -46 54 1 7 -3 10 -8 7 -5 -3 -9 7 -9 22 0 15
-3 24 -7 20 -4 -3 -14 13 -23 36 -11 31 -22 44 -38 46 -12 2 -22 7 -22 11 0 9
51 35 63 32 5 -1 6 3 3 8 -4 5 -2 12 4 16 13 8 13 51 0 76 -8 13 -7 19 0 19 5
0 81 -44 168 -98 346 -216 367 -225 445 -175 78 51 195 142 217 170 38 48 17
121 -110 388 -74 155 -136 254 -178 284 l-30 21 -83 -42z m70 -86 c61 -96 209
-429 226 -509 6 -29 2 -35 -42 -70 -27 -21 -75 -56 -106 -77 -57 -39 -58 -39
-90 -23 -86 44 -195 112 -420 266 l-78 52 57 45 c32 24 61 44 65 44 5 0 54
-30 111 -67 105 -68 234 -133 263 -133 21 0 14 24 -30 105 -34 61 -135 291
-135 306 0 9 129 109 140 109 5 0 22 -22 39 -48z m-641 -468 c13 -26 22 -47
20 -49 -35 -25 -103 -67 -138 -85 -25 -12 -47 -24 -49 -26 -4 -4 46 -114 53
-114 3 0 28 9 56 20 68 27 75 26 87 -15 l11 -35 -68 -51 -69 -51 22 -44 c11
-24 27 -44 34 -44 7 0 52 18 100 39 131 58 125 58 153 5 l25 -45 -23 -18 c-33
-25 -322 -169 -353 -176 -25 -6 -27 -3 -88 167 -56 154 -96 290 -114 385 l-6
32 147 75 c81 41 154 75 163 76 8 0 25 -20 37 -46z m-638 -296 c135 -41 224
-150 223 -274 -1 -75 -26 -132 -90 -198 -78 -82 -179 -130 -296 -142 l-64 -6
-26 138 c-15 77 -33 182 -42 234 -9 52 -23 123 -31 158 -8 35 -12 67 -10 71 6
9 97 29 156 34 49 5 138 -3 180 -15z"/>
<path d="M18190 1341 c-28 -8 -28 -6 -17 -80 8 -51 53 -230 60 -237 8 -9 79
19 106 42 36 30 81 117 81 158 0 21 -11 39 -40 67 -54 52 -121 69 -190 50z"/>
<path d="M14894 2240 c-95 -19 -202 -93 -258 -178 -26 -39 -30 -56 -34 -134
-8 -153 35 -262 148 -382 54 -57 90 -83 153 -116 121 -61 125 -59 215 75 122
182 153 244 146 286 -5 32 -3 37 18 42 30 8 107 63 114 82 3 7 -16 50 -41 95
-38 65 -58 88 -104 119 -139 94 -257 131 -357 111z m188 -84 c101 -42 227
-137 228 -174 0 -7 -16 -20 -35 -29 l-35 -17 -36 37 c-44 45 -116 69 -180 60
-59 -8 -140 -58 -181 -111 -47 -62 -46 -110 5 -183 21 -30 40 -54 44 -54 7 0
128 148 128 158 0 4 -15 20 -32 36 -32 29 -33 29 -14 50 11 12 24 21 31 21 14
0 185 -118 185 -128 0 -4 -45 -76 -100 -160 -62 -94 -105 -152 -116 -152 -31
0 -134 63 -185 114 -88 87 -130 178 -130 278 -1 74 26 132 87 188 98 91 219
114 336 66z"/>
<path d="M15499 1862 c-35 -32 -72 -61 -81 -65 -10 -3 -18 -13 -18 -21 0 -14
-64 -87 -209 -241 -104 -109 -111 -121 -99 -156 13 -37 97 -131 144 -159 21
-14 34 -30 34 -42 0 -12 3 -18 6 -15 4 3 16 0 28 -8 40 -29 67 -19 128 46 81
87 93 80 133 -76 35 -138 44 -145 177 -145 106 0 110 -1 131 -26 59 -71 99
-104 140 -114 23 -6 69 -20 102 -32 34 -12 81 -21 109 -20 l48 1 -23 -26 -24
-26 30 21 c29 21 32 22 115 8 127 -21 166 -25 180 -16 8 5 24 0 40 -11 42 -32
271 -61 338 -43 l22 6 0 274 c0 174 4 275 10 279 10 6 7 59 -6 126 -3 14 -18
38 -33 53 -25 24 -38 28 -112 31 -46 3 -118 11 -159 18 -88 17 -98 12 -125
-58 -9 -25 -21 -45 -26 -45 -8 0 -14 34 -11 72 1 9 -5 22 -13 28 -8 7 -15 18
-15 25 0 7 -34 18 -87 28 -161 29 -163 29 -189 12 -36 -23 -86 -106 -134 -221
-68 -161 -90 -207 -95 -202 -7 6 -16 84 -45 368 -12 113 -27 216 -33 230 -8
17 -45 42 -110 76 -54 28 -103 57 -107 65 -5 8 -13 14 -17 14 -4 0 -22 10 -40
23 -17 12 -33 22 -36 22 -2 0 -33 -26 -68 -58z m186 -93 c55 -28 105 -55 111
-60 6 -5 14 -53 18 -107 4 -53 13 -158 21 -232 7 -74 17 -168 20 -207 l7 -73
-109 0 -109 0 -17 73 c-9 39 -19 95 -23 123 l-6 52 -67 26 c-37 14 -75 26 -85
26 -10 0 -45 -28 -76 -62 l-58 -62 -74 60 c-40 33 -74 67 -76 75 -3 16 390
419 410 419 7 0 58 -23 113 -51z m650 -292 c59 -12 60 -13 62 -47 7 -107 26
-259 34 -271 17 -24 77 57 124 166 24 55 45 100 47 99 2 -1 50 -7 108 -13 58
-7 113 -15 123 -17 15 -5 17 -24 17 -212 0 -114 -3 -251 -7 -305 l-6 -98 -36
5 c-20 3 -69 10 -108 16 l-73 12 0 146 0 147 -68 -125 c-77 -141 -73 -138
-182 -120 -64 11 -68 13 -74 42 -3 17 -6 64 -6 106 0 70 -14 146 -31 166 -4 4
-26 -52 -49 -125 -23 -74 -44 -137 -46 -140 -5 -8 -200 57 -197 65 2 3 21 42
43 86 22 44 54 115 71 157 39 100 85 199 111 241 22 37 43 39 143 19z"/>
<path d="M15611 1655 c-1 -6 -28 -44 -61 -85 -33 -41 -60 -78 -60 -82 0 -10
105 -68 124 -68 17 0 19 10 16 115 -1 53 -16 147 -19 120z"/>
<path d="M17063 1429 c-6 -6 -9 -18 -6 -25 3 -8 0 -21 -7 -29 -6 -8 -13 -36
-15 -62 -1 -26 -12 -97 -24 -158 -21 -108 -51 -357 -51 -418 0 -25 8 -37 35
-56 32 -21 49 -24 173 -29 143 -5 381 5 400 17 7 4 8 35 5 91 -6 79 -8 87 -39
118 -18 17 -47 35 -65 39 -29 5 -30 7 -15 19 12 8 21 37 29 83 10 71 10 71
-17 100 l-28 29 29 6 c15 3 45 8 66 12 20 3 38 11 39 18 5 42 8 69 14 131 6
70 6 70 -26 93 -27 20 -47 24 -132 28 -66 3 -105 1 -114 -7 -9 -7 -28 -9 -51
-4 -78 14 -188 17 -200 4z m293 -69 l114 0 0 -54 0 -55 -52 -5 c-29 -4 -78 -7
-108 -9 l-55 -2 -3 -61 c-3 -69 2 -74 86 -74 l43 0 -3 -42 -3 -43 -82 -15 -83
-14 0 -52 c0 -62 4 -64 103 -64 40 0 89 -3 110 -6 l37 -7 0 -52 0 -53 -106 -7
c-124 -9 -311 -2 -323 11 -5 5 -5 38 -1 74 5 36 16 123 25 194 8 71 27 179 42
239 l27 109 59 -6 c33 -3 111 -6 173 -6z"/>
</g>
</svg>
